<svg xmlns="http://www.w3.org/2000/svg" viewBox="0 0 64 64" width="64" height="64"><path d="M5 23 L57 23 L63 16 L11 16 Z" fill="#16181f" stroke="#e8eaf0" stroke-width="1.6" stroke-linejoin="round"/><path d="M5.00 23.00 L57.00 23.00" stroke="#e8eaf0" stroke-width="1.5" stroke-linecap="round" fill="none"/><path d="M5.63 25.70 L55.51 25.70" stroke="#e8eaf0" stroke-width="1.5" stroke-linecap="round" fill="none"/><path d="M2.86 28.40 L57.83 28.40" stroke="#e8eaf0" stroke-width="1.5" stroke-linecap="round" fill="none"/><path d="M5.50 31.10 L55.18 31.10" stroke="#e8eaf0" stroke-width="1.5" stroke-linecap="round" fill="none"/><path d="M4.24 33.80 L56.73 33.80" stroke="#8a8f9b" stroke-width="1.5" stroke-linecap="round" fill="none"/><path d="M4.03 36.50 L57.76 36.50" stroke="#8a8f9b" stroke-width="1.5" stroke-linecap="round" fill="none"/><path d="M6.70 39.20 L55.83 39.20" stroke="#8a8f9b" stroke-width="1.5" stroke-linecap="round" fill="none"/><path d="M4.24 41.90 L58.89 41.90" stroke="#8a8f9b" stroke-width="1.5" stroke-linecap="round" fill="none"/><path d="M6.20 44.60 L57.26 44.60" stroke="#8a8f9b" stroke-width="1.5" stroke-linecap="round" fill="none"/><path d="M6.19 47.30 L56.93 47.30" stroke="#585c72" stroke-width="1.5" stroke-linecap="round" fill="none"/><path d="M3.94 50.00 L58.64 50.00" stroke="#585c72" stroke-width="1.5" stroke-linecap="round" fill="none"/><path d="M6.33 52.70 L55.44 52.70" stroke="#585c72" stroke-width="1.5" stroke-linecap="round" fill="none"/><path d="M3.80 55.40 L57.18 55.40" stroke="#585c72" stroke-width="1.5" stroke-linecap="round" fill="none"/><path d="M3.99 58.10 L56.71 58.10" stroke="#585c72" stroke-width="1.5" stroke-linecap="round" fill="none"/><path d="M5.57 60.80 L55.08 60.80" stroke="#585c72" stroke-width="1.5" stroke-linecap="round" fill="none"/><path d="M3.08 63.50 L58.08 63.50" stroke="#585c72" stroke-width="1.5" stroke-linecap="round" fill="none"/></svg>
