<svg xmlns="http://www.w3.org/2000/svg" viewBox="0 0 64 64" width="64" height="64"><g transform="rotate(-4 32 40)"><path d="M6 24 L58 24 L64 17 L12 17 Z" fill="#16181f" stroke="#e8eaf0" stroke-width="1.6" stroke-linejoin="round"/><path d="M6.31 24.00 L55.38 24.00" stroke="#e8eaf0" stroke-width="1.5" stroke-linecap="round" fill="none"/><path d="M4.00 26.90 L58.47 26.90" stroke="#e8eaf0" stroke-width="1.5" stroke-linecap="round" fill="none"/><path d="M5.87 29.80 L57.33 29.80" stroke="#e8eaf0" stroke-width="1.5" stroke-linecap="round" fill="none"/><path d="M6.45 32.70 L56.89 32.70" stroke="#e8eaf0" stroke-width="1.5" stroke-linecap="round" fill="none"/><path d="M4.18 35.60 L59.03 35.60" stroke="#e8eaf0" stroke-width="1.5" stroke-linecap="round" fill="none"/><path d="M6.68 38.50 L55.95 38.50" stroke="#e8eaf0" stroke-width="1.5" stroke-linecap="round" fill="none"/><path d="M4.37 41.40 L57.38 41.40" stroke="#e8eaf0" stroke-width="1.5" stroke-linecap="round" fill="none"/><path d="M4.04 44.30 L57.10 44.30" stroke="#e8eaf0" stroke-width="1.5" stroke-linecap="round" fill="none"/><path d="M5.67 47.20 L54.95 47.20" stroke="#e8eaf0" stroke-width="1.5" stroke-linecap="round" fill="none"/><path d="M2.88 50.10 L57.77 50.10" stroke="#e8eaf0" stroke-width="1.5" stroke-linecap="round" fill="none"/><path d="M5.34 53.00 L55.85 53.00" stroke="#e8eaf0" stroke-width="1.5" stroke-linecap="round" fill="none"/><path d="M5.19 55.90 L56.63 55.90" stroke="#e8eaf0" stroke-width="1.5" stroke-linecap="round" fill="none"/><path d="M4.11 58.80 L58.60 58.80" stroke="#e8eaf0" stroke-width="1.5" stroke-linecap="round" fill="none"/><path d="M7.10 61.70 L56.15 61.70" stroke="#e8eaf0" stroke-width="1.5" stroke-linecap="round" fill="none"/><path d="M4.70 64.60 L58.64 64.60" stroke="#e8eaf0" stroke-width="1.5" stroke-linecap="round" fill="none"/></g></svg>
