<svg xmlns="http://www.w3.org/2000/svg" viewBox="0 0 64 64" width="64" height="64"><path d="M6.0 56.0 L48.0 56.0 L56.0 50.0 L14.0 50.0 Z" fill="#16181f" stroke="#e8eaf0" stroke-width="1.5" stroke-linejoin="round"/><path d="M6.0 56.0 L48.0 56.0 L48.0 58.6 L6.0 58.6 Z" fill="#16181f" stroke="#e8eaf0" stroke-width="1.5" stroke-linejoin="round"/><path d="M7.1 50.4 L49.1 50.4 L57.1 44.4 L15.1 44.4 Z" fill="#16181f" stroke="#e8eaf0" stroke-width="1.5" stroke-linejoin="round"/><path d="M7.1 50.4 L49.1 50.4 L49.1 53.0 L7.1 53.0 Z" fill="#16181f" stroke="#e8eaf0" stroke-width="1.5" stroke-linejoin="round"/><path d="M5.4 44.8 L47.4 44.8 L55.4 38.8 L13.4 38.8 Z" fill="#16181f" stroke="#e8eaf0" stroke-width="1.5" stroke-linejoin="round"/><path d="M5.4 44.8 L47.4 44.8 L47.4 47.4 L5.4 47.4 Z" fill="#16181f" stroke="#e8eaf0" stroke-width="1.5" stroke-linejoin="round"/><path d="M5.2 39.2 L47.2 39.2 L55.2 33.2 L13.2 33.2 Z" fill="#16181f" stroke="#e8eaf0" stroke-width="1.5" stroke-linejoin="round"/><path d="M5.2 39.2 L47.2 39.2 L47.2 41.8 L5.2 41.8 Z" fill="#16181f" stroke="#e8eaf0" stroke-width="1.5" stroke-linejoin="round"/><path d="M7.1 33.6 L49.1 33.6 L57.1 27.6 L15.1 27.6 Z" fill="#16181f" stroke="#e8eaf0" stroke-width="1.5" stroke-linejoin="round"/><path d="M7.1 33.6 L49.1 33.6 L49.1 36.2 L7.1 36.2 Z" fill="#16181f" stroke="#e8eaf0" stroke-width="1.5" stroke-linejoin="round"/><path d="M6.2 28.0 L48.2 28.0 L56.2 22.0 L14.2 22.0 Z" fill="#16181f" stroke="#e8eaf0" stroke-width="1.5" stroke-linejoin="round"/><path d="M6.2 28.0 L48.2 28.0 L48.2 30.6 L6.2 30.6 Z" fill="#16181f" stroke="#e8eaf0" stroke-width="1.5" stroke-linejoin="round"/><path d="M4.7 22.4 L46.7 22.4 L54.7 16.4 L12.7 16.4 Z" fill="#16181f" stroke="#e8eaf0" stroke-width="1.5" stroke-linejoin="round"/><path d="M4.7 22.4 L46.7 22.4 L46.7 25.0 L4.7 25.0 Z" fill="#16181f" stroke="#e8eaf0" stroke-width="1.5" stroke-linejoin="round"/></svg>
