<svg xmlns="http://www.w3.org/2000/svg" viewBox="0 0 64 64" width="64" height="64"><path d="M5.0 58.0 L49.0 58.0 L57.0 53.0 L13.0 53.0 Z" fill="#16181f" stroke="#e8eaf0" stroke-width="1.5" stroke-linejoin="round"/><path d="M5.0 58.0 L49.0 58.0 L49.0 59.9 L5.0 59.9 Z" fill="#16181f" stroke="#e8eaf0" stroke-width="1.5" stroke-linejoin="round"/><path d="M6.1 54.1 L50.1 54.1 L58.1 49.1 L14.1 49.1 Z" fill="#16181f" stroke="#e8eaf0" stroke-width="1.5" stroke-linejoin="round"/><path d="M6.1 54.1 L50.1 54.1 L50.1 56.0 L6.1 56.0 Z" fill="#16181f" stroke="#e8eaf0" stroke-width="1.5" stroke-linejoin="round"/><path d="M4.4 50.2 L48.4 50.2 L56.4 45.2 L12.4 45.2 Z" fill="#16181f" stroke="#e8eaf0" stroke-width="1.5" stroke-linejoin="round"/><path d="M4.4 50.2 L48.4 50.2 L48.4 52.1 L4.4 52.1 Z" fill="#16181f" stroke="#e8eaf0" stroke-width="1.5" stroke-linejoin="round"/><path d="M4.2 46.3 L48.2 46.3 L56.2 41.3 L12.2 41.3 Z" fill="#16181f" stroke="#e8eaf0" stroke-width="1.5" stroke-linejoin="round"/><path d="M4.2 46.3 L48.2 46.3 L48.2 48.2 L4.2 48.2 Z" fill="#16181f" stroke="#e8eaf0" stroke-width="1.5" stroke-linejoin="round"/><path d="M6.1 42.4 L50.1 42.4 L58.1 37.4 L14.1 37.4 Z" fill="#16181f" stroke="#e8eaf0" stroke-width="1.5" stroke-linejoin="round"/><path d="M6.1 42.4 L50.1 42.4 L50.1 44.3 L6.1 44.3 Z" fill="#16181f" stroke="#e8eaf0" stroke-width="1.5" stroke-linejoin="round"/><path d="M5.2 38.5 L49.2 38.5 L57.2 33.5 L13.2 33.5 Z" fill="#16181f" stroke="#e8eaf0" stroke-width="1.5" stroke-linejoin="round"/><path d="M5.2 38.5 L49.2 38.5 L49.2 40.4 L5.2 40.4 Z" fill="#16181f" stroke="#e8eaf0" stroke-width="1.5" stroke-linejoin="round"/><path d="M3.7 34.6 L47.7 34.6 L55.7 29.6 L11.7 29.6 Z" fill="#16181f" stroke="#e8eaf0" stroke-width="1.5" stroke-linejoin="round"/><path d="M3.7 34.6 L47.7 34.6 L47.7 36.5 L3.7 36.5 Z" fill="#16181f" stroke="#e8eaf0" stroke-width="1.5" stroke-linejoin="round"/><path d="M5.5 30.7 L49.5 30.7 L57.5 25.7 L13.5 25.7 Z" fill="#16181f" stroke="#e8eaf0" stroke-width="1.5" stroke-linejoin="round"/><path d="M5.5 30.7 L49.5 30.7 L49.5 32.6 L5.5 32.6 Z" fill="#16181f" stroke="#e8eaf0" stroke-width="1.5" stroke-linejoin="round"/><path d="M6.0 26.8 L50.0 26.8 L58.0 21.8 L14.0 21.8 Z" fill="#16181f" stroke="#e8eaf0" stroke-width="1.5" stroke-linejoin="round"/><path d="M6.0 26.8 L50.0 26.8 L50.0 28.7 L6.0 28.7 Z" fill="#16181f" stroke="#e8eaf0" stroke-width="1.5" stroke-linejoin="round"/><path d="M3.8 22.9 L47.8 22.9 L55.8 17.9 L11.8 17.9 Z" fill="#16181f" stroke="#e8eaf0" stroke-width="1.5" stroke-linejoin="round"/><path d="M3.8 22.9 L47.8 22.9 L47.8 24.8 L3.8 24.8 Z" fill="#16181f" stroke="#e8eaf0" stroke-width="1.5" stroke-linejoin="round"/><path d="M4.7 19.0 L48.7 19.0 L56.7 14.0 L12.7 14.0 Z" fill="#16181f" stroke="#e8eaf0" stroke-width="1.5" stroke-linejoin="round"/><path d="M4.7 19.0 L48.7 19.0 L48.7 20.9 L4.7 20.9 Z" fill="#16181f" stroke="#e8eaf0" stroke-width="1.5" stroke-linejoin="round"/><path d="M6.6 15.1 L50.6 15.1 L58.6 10.1 L14.6 10.1 Z" fill="#16181f" stroke="#e8eaf0" stroke-width="1.5" stroke-linejoin="round"/><path d="M6.6 15.1 L50.6 15.1 L50.6 17.0 L6.6 17.0 Z" fill="#16181f" stroke="#e8eaf0" stroke-width="1.5" stroke-linejoin="round"/></svg>
