<svg xmlns="http://www.w3.org/2000/svg" viewBox="0 0 64 64" width="64" height="64"><g transform="rotate(-5 32 36)"><path d="M7.0 56.0 L47.0 56.0 L55.0 50.0 L15.0 50.0 Z" fill="#16181f" stroke="#e8eaf0" stroke-width="1.5" stroke-linejoin="round"/><path d="M7.0 56.0 L47.0 56.0 L47.0 58.2 L7.0 58.2 Z" fill="#16181f" stroke="#e8eaf0" stroke-width="1.5" stroke-linejoin="round"/><path d="M8.1 51.3 L48.1 51.3 L56.1 45.3 L16.1 45.3 Z" fill="#16181f" stroke="#e8eaf0" stroke-width="1.5" stroke-linejoin="round"/><path d="M8.1 51.3 L48.1 51.3 L48.1 53.5 L8.1 53.5 Z" fill="#16181f" stroke="#e8eaf0" stroke-width="1.5" stroke-linejoin="round"/><path d="M6.4 46.6 L46.4 46.6 L54.4 40.6 L14.4 40.6 Z" fill="#16181f" stroke="#e8eaf0" stroke-width="1.5" stroke-linejoin="round"/><path d="M6.4 46.6 L46.4 46.6 L46.4 48.8 L6.4 48.8 Z" fill="#16181f" stroke="#e8eaf0" stroke-width="1.5" stroke-linejoin="round"/><path d="M6.2 41.9 L46.2 41.9 L54.2 35.9 L14.2 35.9 Z" fill="#16181f" stroke="#e8eaf0" stroke-width="1.5" stroke-linejoin="round"/><path d="M6.2 41.9 L46.2 41.9 L46.2 44.1 L6.2 44.1 Z" fill="#16181f" stroke="#e8eaf0" stroke-width="1.5" stroke-linejoin="round"/><path d="M8.1 37.2 L48.1 37.2 L56.1 31.2 L16.1 31.2 Z" fill="#16181f" stroke="#e8eaf0" stroke-width="1.5" stroke-linejoin="round"/><path d="M8.1 37.2 L48.1 37.2 L48.1 39.4 L8.1 39.4 Z" fill="#16181f" stroke="#e8eaf0" stroke-width="1.5" stroke-linejoin="round"/><path d="M7.2 32.5 L47.2 32.5 L55.2 26.5 L15.2 26.5 Z" fill="#16181f" stroke="#e8eaf0" stroke-width="1.5" stroke-linejoin="round"/><path d="M7.2 32.5 L47.2 32.5 L47.2 34.7 L7.2 34.7 Z" fill="#16181f" stroke="#e8eaf0" stroke-width="1.5" stroke-linejoin="round"/><path d="M5.7 27.8 L45.7 27.8 L53.7 21.8 L13.7 21.8 Z" fill="#16181f" stroke="#e8eaf0" stroke-width="1.5" stroke-linejoin="round"/><path d="M5.7 27.8 L45.7 27.8 L45.7 30.0 L5.7 30.0 Z" fill="#16181f" stroke="#e8eaf0" stroke-width="1.5" stroke-linejoin="round"/><path d="M7.5 23.1 L47.5 23.1 L55.5 17.1 L15.5 17.1 Z" fill="#16181f" stroke="#e8eaf0" stroke-width="1.5" stroke-linejoin="round"/><path d="M7.5 23.1 L47.5 23.1 L47.5 25.3 L7.5 25.3 Z" fill="#16181f" stroke="#e8eaf0" stroke-width="1.5" stroke-linejoin="round"/><path d="M8.0 18.4 L48.0 18.4 L56.0 12.4 L16.0 12.4 Z" fill="#16181f" stroke="#e8eaf0" stroke-width="1.5" stroke-linejoin="round"/><path d="M8.0 18.4 L48.0 18.4 L48.0 20.6 L8.0 20.6 Z" fill="#16181f" stroke="#e8eaf0" stroke-width="1.5" stroke-linejoin="round"/></g></svg>
